<?xml version="1.0" encoding="UTF-8" standalone="no"?>
<!-- Created with Inkscape (http://www.inkscape.org/) -->

<svg
   xmlns:dc="http://purl.org/dc/elements/1.1/"
   xmlns:cc="http://creativecommons.org/ns#"
   xmlns:rdf="http://www.w3.org/1999/02/22-rdf-syntax-ns#"
   xmlns:svg="http://www.w3.org/2000/svg"
   xmlns="http://www.w3.org/2000/svg"
   xmlns:sodipodi="http://sodipodi.sourceforge.net/DTD/sodipodi-0.dtd"
   xmlns:inkscape="http://www.inkscape.org/namespaces/inkscape"
   width="50.698666mm"
   height="81.363609mm"
   viewBox="0 0 50.698666 81.363609"
   version="1.1"
   id="svg8"
   inkscape:version="0.92.4 (5da689c313, 2019-01-14)"
   sodipodi:docname="logo_asociace_tom.svg">
  <defs
     id="defs2" />
  <sodipodi:namedview
     id="base"
     pagecolor="#ffffff"
     bordercolor="#666666"
     borderopacity="1.0"
     inkscape:pageopacity="0.0"
     inkscape:pageshadow="2"
     inkscape:zoom="0.98994949"
     inkscape:cx="-65.203116"
     inkscape:cy="217.35876"
     inkscape:document-units="mm"
     inkscape:current-layer="layer1"
     showgrid="false"
     fit-margin-top="0"
     fit-margin-left="0"
     fit-margin-right="0"
     fit-margin-bottom="0"
     inkscape:window-width="1920"
     inkscape:window-height="1017"
     inkscape:window-x="1016"
     inkscape:window-y="-8"
     inkscape:window-maximized="1" />
  <metadata
     id="metadata5">
    <rdf:RDF>
      <cc:Work
         rdf:about="">
        <dc:format>image/svg+xml</dc:format>
        <dc:type
           rdf:resource="http://purl.org/dc/dcmitype/StillImage" />
        <dc:title></dc:title>
      </cc:Work>
    </rdf:RDF>
  </metadata>
  <g
     inkscape:label="Vrstva 1"
     inkscape:groupmode="layer"
     id="layer1"
     transform="translate(-69.144715,-153.50867)">
    <g
       id="g858"
       transform="matrix(0.26458333,0,0,0.26458333,56.791055,142.33188)">
      <g
         id="g856"
         data-name="Layer 1">
        <clipPath
           id="a">
          <path
             id="path815"
             transform="matrix(1,0,0,-1,0,392)"
             d="M 0,392 H 285 V 0 H 0 Z"
             inkscape:connector-curvature="0" />
        </clipPath>
        <g
           id="g854"
           clip-path="url(#a)">
          <path
             id="path818"
             transform="matrix(1,0,0,-1,53.703,342.87)"
             d="M 0,0 -0.27,69.447 22.166,69.299 6.521,249.601 c 5.389,2.347 10.723,4.346 16.118,6.694 15.371,6.094 29.146,8.253 45.466,8.677 4.829,7.839 11.499,15.754 17.518,22.269 l 3.172,3.639 5.096,-5.103 c 6.054,-6.526 12.517,-12.816 17.343,-20.742 13.983,-0.493 27.555,-2.447 40.485,-7.562 l 9.492,-3.399 7.557,-3.458 2.076,-1.048 -15.893,-180.078 22.768,-0.131 0.078,-69.476 z M 162.703,76.262 178.16,253.28 c -19.506,9.908 -41.969,17.654 -63.836,18.377 -5.144,8.937 -19.062,21.557 -25.605,28.97 C 79.125,292.449 70.814,281.918 63.373,271.833 40.379,269.824 21.33,264.269 -0.668,253.388 L 14.818,76.205 -6.996,76.176 l -0.016,-83.02 191.559,-0.045 0.058,83.077 z"
             inkscape:connector-curvature="0"
             style="fill:#213c77;fill-rule:evenodd" />
          <path
             id="path820"
             transform="matrix(1,0,0,-1,168.7,334.328)"
             d="M 0,0 11.412,-0.057 16.096,24.998 27.336,4.51 38.457,25.23 43.256,-0.057 H 54.613 L 47.586,52.566 36.111,52.508 27.449,31.197 18.494,52.506 7.197,52.51 Z"
             inkscape:connector-curvature="0"
             style="fill:#213c77;fill-rule:evenodd" />
          <path
             id="path822"
             transform="matrix(1,0,0,-1,135.52,323.703)"
             d="m 0,0 c -9.084,0 -16.449,7.367 -16.449,16.449 0,9.082 7.365,16.447 16.449,16.447 9.082,0 16.447,-7.365 16.447,-16.447 C 16.447,7.367 9.082,0 0,0 m 0.059,44.693 c -15.709,0 -28.45,-12.74 -28.45,-28.449 0,-15.709 12.741,-28.447 28.45,-28.447 15.709,0 28.447,12.738 28.447,28.447 0,15.709 -12.738,28.449 -28.447,28.449"
             inkscape:connector-curvature="0"
             style="fill:#213c77;fill-rule:evenodd" />
          <path
             id="path824"
             transform="matrix(1,0,0,-1,61.906,281.82)"
             d="m 0,0 41.471,-0.002 v -11.994 l -14.985,0.062 0.118,-40.523 -11.649,-0.051 0.059,40.574 -14.987,-0.004 z"
             inkscape:connector-curvature="0"
             style="fill:#213c77;fill-rule:evenodd" />
          <path
             id="path826"
             transform="matrix(1,0,0,-1,81.842,197.879)"
             d="m 0,0 c 3.238,-3.379 9.229,-6 13.139,-7.896 9.935,-4.823 18.449,-13.858 25.361,-22.622 4.342,-5.505 4.188,-8.037 7.854,-12.88 -12.432,3.689 -18.463,5.244 -27.475,10.99 C 8.342,-25.689 0.1,-16.787 0,0"
             inkscape:connector-curvature="0"
             style="fill:#213c77;fill-rule:evenodd" />
          <path
             id="path828"
             transform="matrix(1,0,0,-1,83.342,240.393)"
             d="M 0,0 C 13.127,3.137 20.842,3.123 31.238,-2.275 35.801,-4.645 38.994,-4.299 43.77,-5.246 39.342,-6.791 35.697,-7.928 29.955,-7.992 21.057,-8.09 7.623,-5.064 0,0"
             inkscape:connector-curvature="0"
             style="fill:#213c77;fill-rule:evenodd" />
          <path
             id="path830"
             transform="matrix(1,0,0,-1,134.11,249.744)"
             d="m 0,0 13.701,0.176 c 1.494,7.967 3.164,16.094 5.106,24.498 2.658,11.517 5.822,23.556 9.736,36.414 5.779,18.991 7.648,39.737 2.893,55.165 -3.666,-5.803 -7.725,-9.857 -14.276,-13.837 -3.232,-1.964 -5.717,-6.179 -8.676,-8.298 -2.888,3.444 -5.951,5.98 -9.109,8.225 -3,2.133 -15.359,10.774 -15.709,13.135 -0.004,0.022 -0.002,0.045 0,0.067 -3.924,-13.339 -2.725,-36.208 4.086,-56.732 C -6.824,42.473 -1.525,17.521 0,0"
             inkscape:connector-curvature="0"
             style="fill:#213c77;fill-rule:evenodd" />
          <path
             id="path832"
             transform="matrix(1,0,0,-1,167.654,224.685)"
             d="m 0,0 c 6.672,7.963 15.256,13.158 25.988,14.867 4.69,1.27 9.473,1.783 14.283,1.756 C 35.002,4.883 27.441,-0.881 15.785,-5.129 5.836,-8.754 -1.801,-13.914 -11.939,-17.096 Z"
             inkscape:connector-curvature="0"
             style="fill:#213c77;fill-rule:evenodd" />
          <path
             id="path834"
             transform="matrix(1,0,0,-1,175.684,238.963)"
             d="M 0,0 C 2.938,1.34 6.256,2.053 9.492,2.775 15.459,4.109 21.494,4.627 26.621,3.619 13.453,-6.555 -0.002,-9.467 -16.439,-6.482 c -0.571,0.103 5.826,1.951 8.525,2.953 C -5.029,-2.459 -2.787,-1.271 0,0"
             inkscape:connector-curvature="0"
             style="fill:#213c77;fill-rule:evenodd" />
          <path
             id="path836"
             transform="matrix(1,0,0,-1,162.965,127.638)"
             d="m 0,0 c 5.807,-5.04 14.893,-7.462 22.598,-8.082 7.961,-2.068 15.922,-5.309 23.179,-9.018 -1.162,15.734 -7.797,27.442 -21.072,33.486 6.061,1.209 10.033,2.147 15.869,5.296 4.393,2.37 5.604,-1.144 12.342,-0.97 -4.764,7.375 -9.164,12.44 -20.367,17.447 -11.541,2.912 -22.246,4.487 -33.365,4.33 -5.852,12.008 -12.252,16.579 -19.784,25.759 -8.416,-9.443 -13.529,-14.816 -19.205,-26.29 -17.435,1.563 -46.814,-3.274 -55.957,-21.953 12.324,2.265 14.25,4.353 25.991,-1.516 -9.993,-9.558 -17.877,-17.71 -22.008,-31.722 5.279,1.604 10.326,2.974 15.841,3.407 3.124,0.055 6.145,-0.358 8.764,-0.35 8.518,0.024 17.74,5.239 24.793,9.704 1.34,-3.008 7.059,-8.046 10.738,-10.104 3.946,-2.207 8.342,-5.869 10.92,-9.097 1.09,1.953 6.047,6.953 8.342,7.644 C -8.648,-10.907 -3.145,-3.73 0,0"
             inkscape:connector-curvature="0"
             style="fill:#213c77;fill-rule:evenodd" />
          <path
             id="path838"
             transform="matrix(1,0,0,-1,94.67,266.598)"
             d="M 0,0 -2.199,6.377 -4.354,0 Z M 5.93,-6.795 H 2.424 L 1.031,-2.891 H -5.346 L -6.66,-6.795 h -3.416 l 6.213,17.18 h 3.406 z"
             inkscape:connector-curvature="0"
             style="fill:#231f20" />
          <path
             id="path840"
             transform="matrix(1,0,0,-1,101.492,267.805)"
             d="m 0,0 3.135,0.332 c 0.185,-1.137 0.568,-1.969 1.146,-2.5 0.576,-0.529 1.354,-0.797 2.332,-0.797 1.037,0 1.821,0.236 2.344,0.713 0.527,0.471 0.791,1.023 0.791,1.656 0,0.408 -0.111,0.752 -0.334,1.035 C 9.195,0.729 8.809,0.975 8.256,1.184 7.881,1.328 7.02,1.576 5.678,1.936 3.951,2.396 2.74,2.963 2.047,3.635 1.066,4.58 0.576,5.732 0.576,7.092 c 0,0.875 0.229,1.691 0.69,2.455 0.461,0.762 1.125,1.34 1.992,1.74 0.869,0.397 1.912,0.596 3.137,0.596 2.005,0 3.509,-0.471 4.523,-1.416 C 11.928,9.52 12.459,8.26 12.512,6.68 L 9.291,6.527 C 9.154,7.412 8.857,8.047 8.404,8.432 7.951,8.82 7.271,9.012 6.365,9.012 5.43,9.012 4.693,8.807 4.166,8.393 3.824,8.127 3.654,7.771 3.654,7.328 3.654,6.92 3.814,6.572 4.133,6.283 4.539,5.916 5.525,5.531 7.094,5.135 8.66,4.736 9.818,4.324 10.57,3.9 c 0.75,-0.429 1.336,-1.007 1.764,-1.748 0.424,-0.74 0.635,-1.652 0.635,-2.736 0,-0.984 -0.252,-1.908 -0.762,-2.764 -0.508,-0.861 -1.225,-1.5 -2.154,-1.916 -0.928,-0.42 -2.086,-0.629 -3.473,-0.629 -2.016,0 -3.564,0.5 -4.644,1.504 C 0.854,-3.385 0.207,-1.92 0,0"
             inkscape:connector-curvature="0"
             style="fill:#231f20" />
          <path
             id="path842"
             transform="matrix(1,0,0,-1,119.834,264.793)"
             d="m 0,0 c 0,-1.943 0.42,-3.42 1.252,-4.424 0.836,-1.004 1.894,-1.504 3.18,-1.504 1.281,0 2.336,0.496 3.16,1.496 0.82,0.996 1.232,2.489 1.232,4.479 0,1.969 -0.4,3.437 -1.199,4.408 C 6.822,5.424 5.758,5.908 4.432,5.908 3.102,5.908 2.031,5.416 1.219,4.436 0.41,3.455 0,1.98 0,0 m -3.316,-0.115 c 0,1.752 0.242,3.219 0.728,4.406 0.363,0.873 0.858,1.66 1.486,2.357 0.627,0.692 1.315,1.207 2.061,1.543 0.996,0.457 2.139,0.68 3.439,0.68 2.35,0 4.231,-0.783 5.641,-2.355 1.412,-1.569 2.117,-3.752 2.117,-6.547 0,-2.778 -0.701,-4.946 -2.101,-6.514 -1.401,-1.562 -3.274,-2.348 -5.612,-2.348 -2.375,0 -4.259,0.782 -5.66,2.336 -1.4,1.561 -2.099,3.709 -2.099,6.442"
             inkscape:connector-curvature="0"
             style="fill:#231f20" />
          <path
             id="path844"
             transform="matrix(1,0,0,-1,144.71,267.076)"
             d="m 0,0 3.119,-1.064 c -0.478,-1.877 -1.273,-3.268 -2.387,-4.18 -1.111,-0.908 -2.525,-1.365 -4.238,-1.365 -2.117,0 -3.859,0.781 -5.223,2.336 -1.363,1.56 -2.044,3.693 -2.044,6.392 0,2.86 0.685,5.08 2.056,6.664 1.371,1.58 3.172,2.371 5.408,2.371 1.95,0 3.536,-0.619 4.754,-1.863 0.727,-0.732 1.27,-1.787 1.633,-3.164 l -3.189,-0.82 c -0.186,0.892 -0.58,1.595 -1.182,2.113 -0.598,0.516 -1.326,0.771 -2.18,0.771 -1.181,0 -2.142,-0.457 -2.879,-1.373 -0.734,-0.912 -1.103,-2.39 -1.103,-4.439 0,-2.172 0.361,-3.721 1.09,-4.641 0.722,-0.924 1.666,-1.383 2.826,-1.383 0.857,0 1.592,0.291 2.209,0.879 0.617,0.584 1.059,1.51 1.33,2.766"
             inkscape:connector-curvature="0"
             style="fill:#231f20" />
          <path
             id="path846"
             transform="matrix(1,0,0,-1,0,392)"
             d="m 150.498,135.787 h 3.219 v -17.18 h -3.219 z"
             inkscape:connector-curvature="0"
             style="fill:#231f20" />
          <path
             id="path848"
             transform="matrix(1,0,0,-1,165.709,266.598)"
             d="M 0,0 -2.197,6.377 -4.352,0 Z M 5.932,-6.795 H 2.426 l -1.393,3.904 h -6.377 l -1.314,-3.904 h -3.416 l 6.213,17.18 h 3.404 z"
             inkscape:connector-curvature="0"
             style="fill:#231f20" />
          <path
             id="path850"
             transform="matrix(1,0,0,-1,183.086,267.076)"
             d="m 0,0 3.119,-1.064 c -0.478,-1.877 -1.273,-3.268 -2.387,-4.18 -1.111,-0.908 -2.525,-1.365 -4.238,-1.365 -2.117,0 -3.857,0.781 -5.221,2.336 -1.363,1.56 -2.046,3.693 -2.046,6.392 0,2.86 0.687,5.08 2.056,6.664 1.371,1.58 3.172,2.371 5.408,2.371 1.95,0 3.536,-0.619 4.754,-1.863 C 2.174,8.559 2.715,7.504 3.08,6.127 l -3.191,-0.82 c -0.186,0.892 -0.578,1.595 -1.18,2.113 -0.6,0.516 -1.326,0.771 -2.182,0.771 -1.179,0 -2.142,-0.457 -2.877,-1.373 -0.736,-0.912 -1.103,-2.39 -1.103,-4.439 0,-2.172 0.359,-3.721 1.088,-4.641 0.724,-0.924 1.668,-1.383 2.826,-1.383 0.857,0 1.594,0.291 2.211,0.879 C -0.713,-2.182 -0.27,-1.256 0,0"
             inkscape:connector-curvature="0"
             style="fill:#231f20" />
          <path
             id="path852"
             transform="matrix(1,0,0,-1,188.973,273.393)"
             d="M 0,0 V 17.18 H 11.826 V 14.271 H 3.221 v -3.808 h 8.008 V 7.572 H 3.221 V 2.895 h 8.91 V 0 Z"
             inkscape:connector-curvature="0"
             style="fill:#231f20" />
        </g>
      </g>
    </g>
  </g>
</svg>
