<?xml version="1.0" encoding="UTF-8"?><svg xmlns="http://www.w3.org/2000/svg" height="59.642" viewBox="0 0 43.959 59.642" width="43.959"><g><g><path d="m 105.99812,168.21066 c -0.0663,-0.83424 -0.24473,-2.16573 -0.39658,-2.95886 5.83672,-29.67389 16.16723,-21.38154 25.89336,-21.45462 3.21625,0.37239 5.75063,-1.35083 7.72775,-0.71205 7.26943,2.34864 7.13543,8.6308 6.84411,13.61208 -0.30161,5.15731 1.03471,11.63637 -4.55384,15.68307 -3.46911,2.512 -8.22845,2.18462 -12.20491,3.59181 -1.48816,0.52663 -2.28623,2.24368 -3.44179,2.24559 -1.27431,0.002 -1.73492,-1.45051 -2.96297,-2.09046 -1.71854,-0.89555 -4.21554,-1.10524 -6.16886,-1.48442 -4.44202,-0.86229 -9.54197,-1.46284 -10.73627,-6.43214 z" fill="#9ca3b4" transform="translate(-103.693 -121.141)"/><path d="m 105.56021,161.64862 c -0.3666,-4.35121 -0.3105,-32.20617 0.0847,-32.90923 0.17324,-0.3082 0.70472,-0.63163 1.14023,-0.71873 1.09641,-0.21928 4.22581,-3.33916 4.4694,-4.44825 0.10332,-0.47046 0.16699,-0.62587 0.4137,-0.68225 0.24455,-0.0559 2.35857,-0.02 4.68691,-0.0516 2.32833,-0.0316 5.43262,-0.10993 6.94522,-0.24562 1.72645,-0.15484 3.13728,-0.0811 5.06489,0.0789 1.68885,0.13993 5.51173,0.0892 7.86008,0.14716 2.34834,0.0579 4.03243,0.0596 4.17553,0.14804 0.14309,0.0884 0.38171,0.41413 0.47251,0.86812 0.2124,1.062 2.95769,4.07325 4.02951,4.28762 0.42396,0.0848 1.08425,0.2332 1.2363,0.41642 0.34101,0.41089 0.17772,7.97869 0.0873,16.75849 0.0511,1.24232 0.48909,9.57218 -1.38228,9.50979 -0.44358,-0.0148 -1.7837,-1.8586 -2.60464,-3.95898 -0.72233,-1.84811 -1.05523,-3.63955 -1.37071,-3.84129 -1.30992,-0.83763 -0.49116,-4.57807 -1.83583,-4.34205 -0.47628,0.0836 -0.51877,4.48728 -0.96695,4.67632 -0.55561,0.23435 -0.33304,2.30234 -0.87971,2.62934 -1.07817,0.64493 -1.48963,2.47407 -2.32752,3.72921 -1.76008,2.63657 -3.78946,5.23947 -6.51676,6.55258 -0.5939,0.28595 -1.19864,0.99944 -1.02852,1.68582 0.1391,0.56123 1.06865,1.08476 0.67574,1.50472 -1.15059,1.22979 -4.7512,1.6791 -6.11508,2.21668 -1.0027,0.39523 -2.44552,0.33516 -3.37987,0.68752 -1.18361,0.44635 -2.40097,1.45245 -3.42467,1.81238 -6.87625,2.41769 -3.60306,1.78909 -7.87306,1.18983 -2.77507,-0.38945 -1.53175,-6.83016 -1.6364,-7.70091 z m 8.8348,-2.91652 c -76.067829,92.07106 -38.033915,46.03553 0,0 z" fill="#1836aa" transform="translate(-103.693 -121.141)"/></g><g><path d="m 125.05192,179.12335 c -1.32213,-2.40521 -1.79461,-2.65613 -6.6963,-3.55628 -2.0938,-0.3845 -4.20839,-0.86621 -4.69911,-1.07046 -0.49071,-0.20424 -1.08938,-0.37135 -1.33038,-0.37135 -0.74756,0 -4.0878,-1.73714 -4.88161,-2.53875 -1.66641,-1.68278 -1.96097,-2.81052 -2.54514,-9.74413 -0.3666,-4.35121 -0.20776,-32.4213 0.18744,-33.12436 0.17324,-0.3082 0.67131,-0.63163 1.10683,-0.71873 1.0964,-0.21928 4.12558,-3.22222 4.36917,-4.33131 0.10332,-0.47046 0.38415,-0.89314 0.63085,-0.94952 0.24455,-0.0559 2.34963,-0.12749 4.67797,-0.15912 2.32833,-0.0316 5.47092,-0.1685 6.98352,-0.30416 1.72645,-0.15484 3.89323,-0.15196 5.82084,0.008 1.68885,0.13993 4.99201,0.30183 7.34036,0.35977 2.34834,0.0579 4.38679,0.17772 4.52989,0.26615 0.14309,0.0884 0.33446,0.53225 0.42526,0.98624 0.2124,1.062 3.07581,3.90789 4.14763,4.12226 0.42396,0.0848 0.89526,0.30407 1.04731,0.48729 0.34101,0.41089 0.5557,8.2858 0.46526,17.0656 -0.0367,3.56526 -0.0334,7.79198 0.007,9.39271 0.0408,1.60073 -0.0607,5.05354 -0.22555,7.67292 -0.27659,4.39552 -0.36069,4.89502 -1.09142,6.48229 -0.43546,0.94589 -1.10823,2.06202 -1.49506,2.48029 -0.72997,0.78932 -4.06353,2.5468 -4.83073,2.5468 -0.24099,0 -0.83966,0.16578 -1.33038,0.36841 -0.75418,0.31142 -3.76454,0.93936 -7.63908,1.59346 -1.44738,0.24434 -2.5957,1.09577 -3.2251,2.39127 -0.73768,1.51838 -1.18008,1.68143 -1.74983,0.64495 z m 1.38182,-2.10305 c 0.84595,-1.27831 2.32057,-1.99105 4.87605,-2.35677 0.96787,-0.13851 2.6285,-0.37786 3.69029,-0.53189 2.15356,-0.3124 6.43828,-1.98335 7.85326,-3.06261 0.52254,-0.39856 1.21756,-1.3419 1.61707,-2.19482 0.63246,-1.35025 0.72747,-1.97221 0.97623,-6.39062 l 0.27557,-4.89479 -1.39161,-1.85209 c -2.39583,-3.1886 -4.55366,-7.9376 -4.92902,-10.84791 l -0.20475,-1.5875 -0.45212,2.26349 c -1.06376,5.32555 -5.32133,12.05326 -9.30798,14.70827 -0.97942,0.65226 -1.85528,1.30652 -1.94637,1.45391 -0.0911,0.14739 0.0852,0.50162 0.39168,0.78719 0.30652,0.28557 0.55731,0.69042 0.55731,0.89968 0,0.83035 -2.29171,1.75648 -4.4934,1.81587 -0.9633,0.026 -1.20451,0.1314 -1.28409,0.56117 -0.17634,0.95235 -0.85773,1.45521 -1.97189,1.45521 -0.68809,0 -1.86388,-0.56074 -2.64703,-0.34085 -0.81473,0.22877 -1.24338,1.24796 -2.30359,1.75546 -1.19953,0.57418 -2.12,0.82575 -3.04271,0.83155 -0.72761,0.005 -1.58298,0.15591 -1.90084,0.33629 -0.31785,0.18038 -1.12153,0.32797 -1.78594,0.32797 -1.29643,0 -1.4788,0.20909 -0.74499,0.8542 1.56152,1.37279 6.24291,3.01288 9.63168,3.37441 4.17254,0.44513 6.23532,1.25246 7.14665,2.79705 0.2959,0.50151 0.56995,0.91184 0.609,0.91184 0.0391,0 0.39074,-0.48317 0.78154,-1.07371 z m -15.68239,-8.28081 c 0.53214,-0.34978 1.00917,-0.4222 1.98438,-0.30126 l 1.37831,-0.006 1.56629,-1.45581 c 1.40955,-1.37594 1.76976,-1.5996 2.38125,-1.47854 1.20195,0.23796 3.10368,0.27264 3.44324,0.0628 0.17597,-0.10875 0.31994,-0.41426 0.31994,-0.67889 0,-0.83799 0.74277,-1.17279 2.64647,-1.19287 0.99656,-0.0105 1.89129,-0.0985 1.98827,-0.19545 0.097,-0.097 0.0253,-0.59414 -0.15938,-1.10478 -0.41449,-1.14624 -0.16193,-1.52054 1.64318,-2.43526 1.1243,-0.56972 3.75004,-3.0483 5.62229,-5.30717 0.94988,-1.14604 2.98152,-5.46352 3.47087,-7.37604 0.67842,-2.65146 0.92344,-5.8063 0.92572,-11.91948 0.002,-4.18229 0.0921,-5.92396 0.31967,-6.15157 0.48607,-0.48607 1.4837,-0.37778 1.78986,0.19428 0.16767,0.3133 0.27397,3.05801 0.27411,7.0776 2.6e-4,8.30129 0.41141,10.67239 2.62931,15.1638 1.23311,2.49712 1.83936,3.31085 2.19883,2.95138 0.32729,-0.32729 0.45019,-8.42183 0.2705,-17.81619 l -0.15022,-7.85434 -1.69666,-0.83526 c -1.73066,-0.852 -3.01414,-2.20842 -3.57837,-3.78172 -0.14724,-0.41058 -0.55851,-0.85706 -0.91393,-0.99219 -0.85783,-0.32615 -26.30233,-0.32331 -27.16066,0.003 -0.43371,0.16489 -0.71729,0.53608 -0.84146,1.10142 -0.24338,1.10811 -2.41345,3.27741 -3.92803,3.92663 -0.64189,0.27515 -1.24213,0.62172 -1.33387,0.77016 -0.0917,0.14844 -0.16636,5.30775 -0.16583,11.46513 0.002,22.45669 0.27492,28.21696 1.35412,28.57669 0.78213,0.26071 3.08789,0.007 3.7218,-0.40993 z" fill="#2f3655" transform="translate(-103.693 -121.141)"/><g fill="#f9f838" transform="translate(-103.693 -121.141)"><path d="m 114.65923,161.50197 a 0.75538802,0.71164411 0 0 1 -0.75538,0.71164 0.75538802,0.71164411 0 0 1 -0.75539,-0.71163 0.75538802,0.71164411 0 0 1 0.75537,-0.71166 0.75538802,0.71164411 0 0 1 0.7554,0.71162" fill-rule="evenodd"/><rect height="13.818" paint-order="stroke fill markers" ry=".408" transform="matrix(.98109 .19357 -.16083 .98698 0 0)" width=".466" x="138.23" y="122.613"/><g><path d="m 126.71637,127.39899 a 0.75538802,0.71164405 0 0 1 -0.75538,0.71164 0.75538802,0.71164405 0 0 1 -0.75539,-0.71163 0.75538802,0.71164405 0 0 1 0.75536,-0.71166 0.75538802,0.71164405 0 0 1 0.75541,0.71162" fill-rule="evenodd"/><path d="m 133.39075,137.85376 a 0.75538802,0.71164411 0 0 1 -0.75538,0.71164 0.75538802,0.71164411 0 0 1 -0.7554,-0.71163 0.75538802,0.71164411 0 0 1 0.75537,-0.71165 0.75538802,0.71164411 0 0 1 0.75541,0.71161" fill-rule="evenodd"/><path d="m 131.98473,131.05902 a 0.75538802,0.71164411 0 0 1 -0.75538,0.71165 0.75538802,0.71164411 0 0 1 -0.7554,-0.71164 0.75538802,0.71164411 0 0 1 0.75537,-0.71165 0.75538802,0.71164411 0 0 1 0.75541,0.71162" fill-rule="evenodd"/><path d="m 116.25074,129.72191 a 0.75538802,0.71164411 0 0 1 -0.75538,0.71164 0.75538802,0.71164411 0 0 1 -0.75539,-0.71163 0.75538802,0.71164411 0 0 1 0.75536,-0.71166 0.75538802,0.71164411 0 0 1 0.75541,0.71162" fill-rule="evenodd"/><path d="m 121.66052,133.80879 a 0.75538802,0.71164411 0 0 1 -0.75538,0.71165 0.75538802,0.71164411 0 0 1 -0.7554,-0.71164 0.75538802,0.71164411 0 0 1 0.75537,-0.71165 0.75538802,0.71164411 0 0 1 0.75541,0.71162" fill-rule="evenodd"/><path d="m 109.77789,134.16313 a 0.75538802,0.71164411 0 0 1 -0.75538,0.71165 0.75538802,0.71164411 0 0 1 -0.7554,-0.71164 0.75538802,0.71164411 0 0 1 0.75537,-0.71165 0.75538802,0.71164411 0 0 1 0.75541,0.71162" fill-rule="evenodd"/><path d="m 116.78024,147.78004 a 0.75538802,0.71164411 0 0 1 -0.75538,0.71165 0.75538802,0.71164411 0 0 1 -0.7554,-0.71163 0.75538802,0.71164411 0 0 1 0.75537,-0.71166 0.75538802,0.71164411 0 0 1 0.75541,0.71162" fill-rule="evenodd"/><path d="m 119.48716,146.82533 a 0.75538802,0.71164411 0 0 1 -0.75538,0.71165 0.75538802,0.71164411 0 0 1 -0.75539,-0.71163 0.75538802,0.71164411 0 0 1 0.75536,-0.71166 0.75538802,0.71164411 0 0 1 0.75541,0.71162" fill-rule="evenodd"/><path d="m 121.47152,145.36067 a 0.75538802,0.71164411 0 0 1 -0.75538,0.71165 0.75538802,0.71164411 0 0 1 -0.75539,-0.71164 0.75538802,0.71164411 0 0 1 0.75536,-0.71165 0.75538802,0.71164411 0 0 1 0.75541,0.71162" fill-rule="evenodd"/><path d="m 119.92327,153.7872 a 0.75538802,0.71164411 0 0 1 -0.75539,0.71165 0.75538802,0.71164411 0 0 1 -0.75539,-0.71164 0.75538802,0.71164411 0 0 1 0.75537,-0.71165 0.75538802,0.71164411 0 0 1 0.75541,0.71162" fill-rule="evenodd"/><path d="m 128.70033,156.07393 a 0.75538802,0.71164411 0 0 1 -0.75538,0.71164 0.75538802,0.71164411 0 0 1 -0.75539,-0.71163 0.75538802,0.71164411 0 0 1 0.75537,-0.71166 0.75538802,0.71164411 0 0 1 0.7554,0.71162" fill-rule="evenodd"/><path d="m 126.47972,149.32944 a 0.75538802,0.71164411 0 0 1 -0.75539,0.71164 0.75538802,0.71164411 0 0 1 -0.75539,-0.71163 0.75538802,0.71164411 0 0 1 0.75537,-0.71166 0.75538802,0.71164411 0 0 1 0.75541,0.71162" fill-rule="evenodd"/><rect height="3.37" paint-order="stroke fill markers" ry=".106" transform="matrix(-.4365 .8997 -.93791 .34687 0 0)" width=".562" x="258.265" y="-247.198"/><rect height="3.082" paint-order="stroke fill markers" rx="0" ry=".112" transform="matrix(.96862 .24855 -.74983 .66163 0 0)" width=".422" x="228.108" y="133.833"/><rect height="14.933" paint-order="stroke fill markers" ry=".444" transform="matrix(.90639 -.42245 .45236 .89183 0 0)" width=".398" x="36.358" y="167.826"/><rect height="7.685" paint-order="stroke fill markers" rx="0" ry=".218" transform="matrix(.47094 .88216 -.80892 .58791 0 0)" width=".386" x="174.236" y="-40.93"/><rect height=".404" paint-order="stroke fill markers" ry=".202" transform="matrix(.77803 .62823 -.66288 .74872 0 0)" width="7.031" x="172.341" y="28.14"/><rect height=".364" paint-order="stroke fill markers" ry=".096" transform="matrix(-.02294 .99974 -.987 -.16068 0 0)" width="11.46" x="113.764" y="-125.308"/><rect height=".386" paint-order="stroke fill markers" ry=".174" transform="matrix(.78904 .61434 -.65805 .75298 0 0)" width="6.946" x="186.694" y="40.382"/><rect height=".444" paint-order="stroke fill markers" ry=".161" transform="matrix(.30426 .95259 -.96696 .25493 0 0)" width="6.867" x="176.899" y="-74.707"/></g></g></g></g></svg>